<mxfile host="app.diagrams.net" modified="2020-11-12T14:31:17.590Z" agent="5.0 (Windows)" etag="C7YSpt1xJKHjCr6JEB_R" version="13.9.7" type="github">
  <diagram name="Page-1" id="2ca16b54-16f6-2749-3443-fa8db7711227">
    <mxGraphModel dx="1611" dy="1217" grid="1" gridSize="10" guides="1" tooltips="1" connect="1" arrows="1" fold="1" page="1" pageScale="1" pageWidth="1100" pageHeight="850" background="#ffffff" math="0" shadow="0">
      <root>
        <mxCell id="0" />
        <mxCell id="1" parent="0" />
        <mxCell id="PtlEcyWW_qO_h-wi1oPS-1" value="&lt;div style=&quot;box-sizing: border-box ; width: 100% ; background: #e4e4e4 ; padding: 2px&quot;&gt;Fact_SalesOrderDetail&lt;/div&gt;&lt;table style=&quot;width: 100% ; font-size: 1em&quot; cellspacing=&quot;0&quot; cellpadding=&quot;2&quot;&gt;&lt;tbody&gt;&lt;tr&gt;&lt;td&gt;OrderDetailKey&lt;/td&gt;&lt;td&gt;INT&lt;/td&gt;&lt;td&gt;&lt;br&gt;&lt;/td&gt;&lt;/tr&gt;&lt;tr&gt;&lt;td&gt;OrderKey&lt;/td&gt;&lt;td&gt;INT&lt;/td&gt;&lt;td&gt;&lt;br&gt;&lt;/td&gt;&lt;/tr&gt;&lt;tr&gt;&lt;td&gt;ProductKey&lt;/td&gt;&lt;td&gt;INT&lt;/td&gt;&lt;td&gt;&lt;br&gt;&lt;/td&gt;&lt;/tr&gt;&lt;tr&gt;&lt;td&gt;SpecialOfferKey&lt;br&gt;&lt;/td&gt;&lt;td&gt;INT&lt;/td&gt;&lt;td&gt;&lt;br&gt;&lt;/td&gt;&lt;/tr&gt;&lt;tr&gt;&lt;td&gt;CustomerKey&lt;br&gt;&lt;/td&gt;&lt;td&gt;INT&lt;/td&gt;&lt;td&gt;&lt;br&gt;&lt;/td&gt;&lt;/tr&gt;&lt;tr&gt;&lt;td&gt;SalesPersonKey&lt;br&gt;&lt;/td&gt;&lt;td&gt;INT&lt;/td&gt;&lt;td&gt;&lt;br&gt;&lt;/td&gt;&lt;/tr&gt;&lt;tr&gt;&lt;td&gt;TerritoryKey&lt;br&gt;&lt;/td&gt;&lt;td&gt;INT&lt;/td&gt;&lt;td&gt;&lt;br&gt;&lt;/td&gt;&lt;/tr&gt;&lt;tr&gt;&lt;td&gt;OrderDateKey&lt;br&gt;&lt;/td&gt;&lt;td&gt;INT&lt;/td&gt;&lt;td&gt;&lt;br&gt;&lt;/td&gt;&lt;/tr&gt;&lt;tr&gt;&lt;td&gt;ShipDateKey&lt;br&gt;&lt;/td&gt;&lt;td&gt;INT&lt;br&gt;&lt;/td&gt;&lt;td&gt;&lt;br&gt;&lt;/td&gt;&lt;/tr&gt;&lt;tr&gt;&lt;td&gt;ShipToAddressKey&lt;br&gt;&lt;/td&gt;&lt;td&gt;INT&lt;br&gt;&lt;/td&gt;&lt;td&gt;&lt;br&gt;&lt;/td&gt;&lt;/tr&gt;&lt;tr&gt;&lt;td&gt;BillToAddressKey&lt;br&gt;&lt;/td&gt;&lt;td&gt;INT&lt;br&gt;&lt;/td&gt;&lt;td&gt;&lt;br&gt;&lt;/td&gt;&lt;/tr&gt;&lt;tr&gt;&lt;td&gt;ShipMethodKey&lt;br&gt;&lt;/td&gt;&lt;td&gt;INT&lt;br&gt;&lt;/td&gt;&lt;td&gt;&lt;br&gt;&lt;/td&gt;&lt;/tr&gt;&lt;tr&gt;&lt;td&gt;UnitPrice&lt;br&gt;&lt;/td&gt;&lt;td&gt;Decimal&lt;br&gt;&lt;/td&gt;&lt;td&gt;&lt;br&gt;&lt;/td&gt;&lt;/tr&gt;&lt;tr&gt;&lt;td&gt;UnitDiscount&lt;br&gt;&lt;/td&gt;&lt;td&gt;Decimal&lt;br&gt;&lt;/td&gt;&lt;td&gt;&lt;br&gt;&lt;/td&gt;&lt;/tr&gt;&lt;tr&gt;&lt;td&gt;LineTotal&lt;br&gt;&lt;/td&gt;&lt;td&gt;Decimal&lt;br&gt;&lt;/td&gt;&lt;td&gt;&lt;br&gt;&lt;/td&gt;&lt;/tr&gt;&lt;tr&gt;&lt;td&gt;Quantity&lt;br&gt;&lt;/td&gt;&lt;td&gt;INT&lt;br&gt;&lt;/td&gt;&lt;td&gt;&lt;br&gt;&lt;/td&gt;&lt;/tr&gt;&lt;tr&gt;&lt;td&gt;Subtotal&lt;br&gt;&lt;/td&gt;&lt;td&gt;Decimal&lt;br&gt;&lt;/td&gt;&lt;td&gt;&lt;br&gt;&lt;/td&gt;&lt;/tr&gt;&lt;tr&gt;&lt;td&gt;TaxAmount&lt;br&gt;&lt;/td&gt;&lt;td&gt;Decimal&lt;br&gt;&lt;/td&gt;&lt;td&gt;&lt;br&gt;&lt;/td&gt;&lt;/tr&gt;&lt;tr&gt;&lt;td&gt;TotalDue&lt;br&gt;&lt;/td&gt;&lt;td&gt;Decimal&lt;br&gt;&lt;/td&gt;&lt;td&gt;&lt;br&gt;&lt;/td&gt;&lt;/tr&gt;&lt;/tbody&gt;&lt;/table&gt;" style="verticalAlign=top;align=left;overflow=fill;html=1;rounded=0;shadow=0;comic=0;labelBackgroundColor=none;strokeWidth=1;fontFamily=Verdana;fontSize=12" parent="1" vertex="1">
          <mxGeometry x="460" y="280" width="180" height="380" as="geometry" />
        </mxCell>
        <mxCell id="PtlEcyWW_qO_h-wi1oPS-2" value="&lt;div style=&quot;box-sizing: border-box ; width: 100% ; background: #e4e4e4 ; padding: 2px&quot;&gt;Dim_Date&lt;/div&gt;&lt;table style=&quot;width: 100% ; font-size: 1em&quot; cellspacing=&quot;0&quot; cellpadding=&quot;2&quot;&gt;&lt;tbody&gt;&lt;tr&gt;&lt;td&gt;DateKey&lt;/td&gt;&lt;td&gt;INT&lt;/td&gt;&lt;td&gt;&lt;br&gt;&lt;/td&gt;&lt;/tr&gt;&lt;tr&gt;&lt;td&gt;Date&lt;/td&gt;&lt;td&gt;Date&lt;/td&gt;&lt;td&gt;&lt;br&gt;&lt;/td&gt;&lt;/tr&gt;&lt;tr&gt;&lt;td&gt;DayOfWeekNo&lt;br&gt;&lt;/td&gt;&lt;td&gt;INT&lt;br&gt;&lt;/td&gt;&lt;td&gt;&lt;br&gt;&lt;/td&gt;&lt;/tr&gt;&lt;tr&gt;&lt;td&gt;DayOfWeekName&lt;br&gt;&lt;/td&gt;&lt;td&gt;VARCHAR&lt;br&gt;&lt;/td&gt;&lt;td&gt;&lt;br&gt;&lt;/td&gt;&lt;/tr&gt;&lt;tr&gt;&lt;td&gt;WeekOfYear&lt;br&gt;&lt;/td&gt;&lt;td&gt;INT&lt;br&gt;&lt;/td&gt;&lt;td&gt;&lt;br&gt;&lt;/td&gt;&lt;/tr&gt;&lt;tr&gt;&lt;td&gt;WeekOfQuarter&lt;br&gt;&lt;/td&gt;&lt;td&gt;INT&lt;br&gt;&lt;/td&gt;&lt;td&gt;&lt;br&gt;&lt;/td&gt;&lt;/tr&gt;&lt;tr&gt;&lt;td&gt;MonthNo&lt;br&gt;&lt;/td&gt;&lt;td&gt;INT&lt;br&gt;&lt;/td&gt;&lt;td&gt;&lt;br&gt;&lt;/td&gt;&lt;/tr&gt;&lt;tr&gt;&lt;td&gt;MonthName&lt;br&gt;&lt;/td&gt;&lt;td&gt;VARCHAR&lt;br&gt;&lt;/td&gt;&lt;td&gt;&lt;br&gt;&lt;/td&gt;&lt;/tr&gt;&lt;tr&gt;&lt;td&gt;Year&lt;br&gt;&lt;/td&gt;&lt;td&gt;INT&lt;br&gt;&lt;/td&gt;&lt;td&gt;&lt;br&gt;&lt;/td&gt;&lt;/tr&gt;&lt;tr&gt;&lt;td&gt;FiscalYear&lt;br&gt;&lt;/td&gt;&lt;td&gt;INT&lt;br&gt;&lt;/td&gt;&lt;td&gt;&lt;br&gt;&lt;/td&gt;&lt;/tr&gt;&lt;tr&gt;&lt;td&gt;IsWeekend&lt;br&gt;&lt;/td&gt;&lt;td&gt;BIT&lt;br&gt;&lt;/td&gt;&lt;td&gt;&lt;br&gt;&lt;/td&gt;&lt;/tr&gt;&lt;/tbody&gt;&lt;/table&gt;" style="verticalAlign=top;align=left;overflow=fill;html=1;rounded=0;shadow=0;comic=0;labelBackgroundColor=none;strokeWidth=1;fontFamily=Verdana;fontSize=12" parent="1" vertex="1">
          <mxGeometry x="460" y="10" width="180" height="230" as="geometry" />
        </mxCell>
        <mxCell id="PtlEcyWW_qO_h-wi1oPS-3" value="&lt;div style=&quot;box-sizing: border-box ; width: 100% ; background: #e4e4e4 ; padding: 2px&quot;&gt;Dim_SpecialOffer&lt;/div&gt;&lt;table style=&quot;width: 100% ; font-size: 1em&quot; cellspacing=&quot;0&quot; cellpadding=&quot;2&quot;&gt;&lt;tbody&gt;&lt;tr&gt;&lt;td&gt;SpecialOfferKey&lt;/td&gt;&lt;td&gt;INT&lt;/td&gt;&lt;td&gt;&lt;br&gt;&lt;/td&gt;&lt;/tr&gt;&lt;tr&gt;&lt;td&gt;Description&lt;/td&gt;&lt;td&gt;CHAR&lt;/td&gt;&lt;td&gt;&lt;br&gt;&lt;/td&gt;&lt;/tr&gt;&lt;tr&gt;&lt;td&gt;Discount&lt;br&gt;&lt;/td&gt;&lt;td&gt;Decimal&lt;br&gt;&lt;/td&gt;&lt;td&gt;&lt;br&gt;&lt;/td&gt;&lt;/tr&gt;&lt;tr&gt;&lt;td&gt;Category&lt;br&gt;&lt;/td&gt;&lt;td&gt;CHAR&lt;br&gt;&lt;/td&gt;&lt;td&gt;&lt;br&gt;&lt;/td&gt;&lt;/tr&gt;&lt;tr&gt;&lt;td&gt;StartDate&lt;br&gt;&lt;/td&gt;&lt;td&gt;INT&lt;br&gt;&lt;/td&gt;&lt;td&gt;&lt;br&gt;&lt;/td&gt;&lt;/tr&gt;&lt;tr&gt;&lt;td&gt;EndDate&lt;br&gt;&lt;/td&gt;&lt;td&gt;INT&lt;br&gt;&lt;/td&gt;&lt;td&gt;&lt;br&gt;&lt;/td&gt;&lt;/tr&gt;&lt;/tbody&gt;&lt;/table&gt;" style="verticalAlign=top;align=left;overflow=fill;html=1;rounded=0;shadow=0;comic=0;labelBackgroundColor=none;strokeWidth=1;fontFamily=Verdana;fontSize=12" parent="1" vertex="1">
          <mxGeometry x="730" y="200" width="170" height="130" as="geometry" />
        </mxCell>
        <mxCell id="PtlEcyWW_qO_h-wi1oPS-4" value="&lt;div style=&quot;box-sizing: border-box ; width: 100% ; background: #e4e4e4 ; padding: 2px&quot;&gt;Dim_Territory&lt;/div&gt;&lt;table style=&quot;width: 100% ; font-size: 1em&quot; cellspacing=&quot;0&quot; cellpadding=&quot;2&quot;&gt;&lt;tbody&gt;&lt;tr&gt;&lt;td&gt;TerritoryKey&lt;/td&gt;&lt;td&gt;INT&lt;/td&gt;&lt;td&gt;&lt;br&gt;&lt;/td&gt;&lt;/tr&gt;&lt;tr&gt;&lt;td&gt;Name&lt;/td&gt;&lt;td&gt;CHAR&lt;/td&gt;&lt;td&gt;&lt;br&gt;&lt;/td&gt;&lt;/tr&gt;&lt;tr&gt;&lt;td&gt;CountryCode&lt;br&gt;&lt;/td&gt;&lt;td&gt;CHAR&lt;br&gt;&lt;/td&gt;&lt;td&gt;&lt;br&gt;&lt;/td&gt;&lt;/tr&gt;&lt;tr&gt;&lt;td&gt;ModifiedDateKey&lt;br&gt;&lt;/td&gt;&lt;td&gt;INT&lt;br&gt;&lt;/td&gt;&lt;td&gt;&lt;br&gt;&lt;/td&gt;&lt;/tr&gt;&lt;tr&gt;&lt;td&gt;&lt;br&gt;&lt;/td&gt;&lt;td&gt;&lt;br&gt;&lt;/td&gt;&lt;td&gt;&lt;br&gt;&lt;/td&gt;&lt;/tr&gt;&lt;tr&gt;&lt;td&gt;&lt;br&gt;&lt;/td&gt;&lt;td&gt;&lt;br&gt;&lt;/td&gt;&lt;td&gt;&lt;br&gt;&lt;/td&gt;&lt;/tr&gt;&lt;tr&gt;&lt;td&gt;&lt;br&gt;&lt;/td&gt;&lt;td&gt;&lt;br&gt;&lt;/td&gt;&lt;td&gt;&lt;br&gt;&lt;/td&gt;&lt;/tr&gt;&lt;/tbody&gt;&lt;/table&gt;" style="verticalAlign=top;align=left;overflow=fill;html=1;rounded=0;shadow=0;comic=0;labelBackgroundColor=none;strokeWidth=1;fontFamily=Verdana;fontSize=12" parent="1" vertex="1">
          <mxGeometry x="730" y="500" width="170" height="90" as="geometry" />
        </mxCell>
        <mxCell id="PtlEcyWW_qO_h-wi1oPS-5" value="&lt;div style=&quot;box-sizing: border-box ; width: 100% ; background: #e4e4e4 ; padding: 2px&quot;&gt;Dim_Product&lt;/div&gt;&lt;table style=&quot;width: 100% ; font-size: 1em&quot; cellspacing=&quot;0&quot; cellpadding=&quot;2&quot;&gt;&lt;tbody&gt;&lt;tr&gt;&lt;td&gt;ProductKey&lt;/td&gt;&lt;td&gt;INT&lt;/td&gt;&lt;td&gt;&lt;br&gt;&lt;/td&gt;&lt;/tr&gt;&lt;tr&gt;&lt;td&gt;Name&lt;/td&gt;&lt;td&gt;CHAR&lt;/td&gt;&lt;td&gt;&lt;br&gt;&lt;/td&gt;&lt;/tr&gt;&lt;tr&gt;&lt;td&gt;MakeFlag&lt;/td&gt;&lt;td&gt;BIT&lt;/td&gt;&lt;td&gt;&lt;br&gt;&lt;/td&gt;&lt;/tr&gt;&lt;tr&gt;&lt;td&gt;Color&lt;br&gt;&lt;/td&gt;&lt;td&gt;CHAR&lt;/td&gt;&lt;td&gt;&lt;br&gt;&lt;/td&gt;&lt;/tr&gt;&lt;tr&gt;&lt;td&gt;Size&lt;br&gt;&lt;/td&gt;&lt;td&gt;INT&lt;/td&gt;&lt;td&gt;&lt;br&gt;&lt;/td&gt;&lt;/tr&gt;&lt;tr&gt;&lt;td&gt;Weight&lt;br&gt;&lt;/td&gt;&lt;td&gt;Decimal&lt;/td&gt;&lt;td&gt;&lt;br&gt;&lt;/td&gt;&lt;/tr&gt;&lt;tr&gt;&lt;td&gt;Category&lt;br&gt;&lt;/td&gt;&lt;td&gt;CHAR&lt;/td&gt;&lt;td&gt;&lt;br&gt;&lt;/td&gt;&lt;/tr&gt;&lt;tr&gt;&lt;td&gt;SubCategory&lt;br&gt;&lt;/td&gt;&lt;td&gt;CHAR&lt;/td&gt;&lt;td&gt;&lt;br&gt;&lt;/td&gt;&lt;/tr&gt;&lt;tr&gt;&lt;td&gt;SellStartDate&lt;br&gt;&lt;/td&gt;&lt;td&gt;INT&lt;br&gt;&lt;/td&gt;&lt;td&gt;&lt;br&gt;&lt;/td&gt;&lt;/tr&gt;&lt;tr&gt;&lt;td&gt;SellEndDate&lt;br&gt;&lt;/td&gt;&lt;td&gt;INT&lt;br&gt;&lt;/td&gt;&lt;td&gt;&lt;br&gt;&lt;/td&gt;&lt;/tr&gt;&lt;tr&gt;&lt;td&gt;DiscontinuedDate&lt;br&gt;&lt;/td&gt;&lt;td&gt;INT&lt;br&gt;&lt;/td&gt;&lt;td&gt;&lt;br&gt;&lt;/td&gt;&lt;/tr&gt;&lt;/tbody&gt;&lt;/table&gt;" style="verticalAlign=top;align=left;overflow=fill;html=1;rounded=0;shadow=0;comic=0;labelBackgroundColor=none;strokeWidth=1;fontFamily=Verdana;fontSize=12" parent="1" vertex="1">
          <mxGeometry x="190" y="190" width="170" height="220" as="geometry" />
        </mxCell>
        <mxCell id="PtlEcyWW_qO_h-wi1oPS-6" value="&lt;div style=&quot;box-sizing: border-box ; width: 100% ; background: #e4e4e4 ; padding: 2px&quot;&gt;Dim_Address&lt;/div&gt;&lt;table style=&quot;width: 100% ; font-size: 1em&quot; cellspacing=&quot;0&quot; cellpadding=&quot;2&quot;&gt;&lt;tbody&gt;&lt;tr&gt;&lt;td&gt;AddressKey&lt;/td&gt;&lt;td&gt;INT&lt;/td&gt;&lt;td&gt;&lt;br&gt;&lt;/td&gt;&lt;/tr&gt;&lt;tr&gt;&lt;td&gt;City&lt;/td&gt;&lt;td&gt;CHAR&lt;/td&gt;&lt;td&gt;&lt;br&gt;&lt;/td&gt;&lt;/tr&gt;&lt;tr&gt;&lt;td&gt;Zipcode&lt;br&gt;&lt;/td&gt;&lt;td&gt;CHAR&lt;br&gt;&lt;/td&gt;&lt;td&gt;&lt;br&gt;&lt;/td&gt;&lt;/tr&gt;&lt;tr&gt;&lt;td&gt;AddressLine&lt;br&gt;&lt;/td&gt;&lt;td&gt;CHAR&lt;br&gt;&lt;/td&gt;&lt;td&gt;&lt;br&gt;&lt;/td&gt;&lt;/tr&gt;&lt;tr&gt;&lt;td&gt;ModifiedDateKey&lt;br&gt;&lt;/td&gt;&lt;td&gt;INT&lt;br&gt;&lt;/td&gt;&lt;td&gt;&lt;br&gt;&lt;/td&gt;&lt;/tr&gt;&lt;tr&gt;&lt;td&gt;&lt;br&gt;&lt;/td&gt;&lt;td&gt;&lt;br&gt;&lt;/td&gt;&lt;td&gt;&lt;br&gt;&lt;/td&gt;&lt;/tr&gt;&lt;/tbody&gt;&lt;/table&gt;" style="verticalAlign=top;align=left;overflow=fill;html=1;rounded=0;shadow=0;comic=0;labelBackgroundColor=none;strokeWidth=1;fontFamily=Verdana;fontSize=12" parent="1" vertex="1">
          <mxGeometry x="190" y="560" width="170" height="110" as="geometry" />
        </mxCell>
        <mxCell id="PtlEcyWW_qO_h-wi1oPS-7" value="&lt;div style=&quot;box-sizing: border-box ; width: 100% ; background: #e4e4e4 ; padding: 2px&quot;&gt;Dim_SalesPerson&lt;/div&gt;&lt;table style=&quot;width: 100% ; font-size: 1em&quot; cellspacing=&quot;0&quot; cellpadding=&quot;2&quot;&gt;&lt;tbody&gt;&lt;tr&gt;&lt;td&gt;SalesPersonKey&lt;/td&gt;&lt;td&gt;INT&lt;/td&gt;&lt;td&gt;&lt;br&gt;&lt;/td&gt;&lt;/tr&gt;&lt;tr&gt;&lt;td&gt;Territory&lt;/td&gt;&lt;td&gt;CHAR&lt;/td&gt;&lt;td&gt;&lt;br&gt;&lt;/td&gt;&lt;/tr&gt;&lt;tr&gt;&lt;td&gt;CountryCode&lt;br&gt;&lt;/td&gt;&lt;td&gt;CHAR&lt;br&gt;&lt;/td&gt;&lt;td&gt;&lt;br&gt;&lt;/td&gt;&lt;/tr&gt;&lt;tr&gt;&lt;td&gt;FirstName&lt;br&gt;&lt;/td&gt;&lt;td&gt;CHAR&lt;br&gt;&lt;/td&gt;&lt;td&gt;&lt;br&gt;&lt;/td&gt;&lt;/tr&gt;&lt;tr&gt;&lt;td&gt;LastName&lt;br&gt;&lt;/td&gt;&lt;td&gt;CHAR&lt;/td&gt;&lt;td&gt;&lt;br&gt;&lt;/td&gt;&lt;/tr&gt;&lt;tr&gt;&lt;td&gt;FullName&lt;br&gt;&lt;/td&gt;&lt;td&gt;CHAR&lt;br&gt;&lt;/td&gt;&lt;td&gt;&lt;br&gt;&lt;/td&gt;&lt;/tr&gt;&lt;tr&gt;&lt;td&gt;&lt;br&gt;&lt;/td&gt;&lt;td&gt;&lt;br&gt;&lt;/td&gt;&lt;td&gt;&lt;br&gt;&lt;/td&gt;&lt;/tr&gt;&lt;tr&gt;&lt;td&gt;&lt;br&gt;&lt;/td&gt;&lt;td&gt;&lt;br&gt;&lt;/td&gt;&lt;td&gt;&lt;br&gt;&lt;/td&gt;&lt;/tr&gt;&lt;/tbody&gt;&lt;/table&gt;" style="verticalAlign=top;align=left;overflow=fill;html=1;rounded=0;shadow=0;comic=0;labelBackgroundColor=none;strokeWidth=1;fontFamily=Verdana;fontSize=12" parent="1" vertex="1">
          <mxGeometry x="730" y="350" width="170" height="130" as="geometry" />
        </mxCell>
        <mxCell id="PtlEcyWW_qO_h-wi1oPS-8" value="&lt;div style=&quot;box-sizing: border-box ; width: 100% ; background: #e4e4e4 ; padding: 2px&quot;&gt;Dim_Customer&lt;/div&gt;&lt;table style=&quot;width: 100% ; font-size: 1em&quot; cellspacing=&quot;0&quot; cellpadding=&quot;2&quot;&gt;&lt;tbody&gt;&lt;tr&gt;&lt;td&gt;CustomerKey&lt;/td&gt;&lt;td&gt;INT&lt;/td&gt;&lt;td&gt;&lt;br&gt;&lt;/td&gt;&lt;/tr&gt;&lt;tr&gt;&lt;td&gt;Store&lt;/td&gt;&lt;td&gt;CHAR&lt;/td&gt;&lt;td&gt;&lt;br&gt;&lt;/td&gt;&lt;/tr&gt;&lt;tr&gt;&lt;td&gt;Territory&lt;br&gt;&lt;/td&gt;&lt;td&gt;CHAR&lt;br&gt;&lt;/td&gt;&lt;td&gt;&lt;br&gt;&lt;/td&gt;&lt;/tr&gt;&lt;tr&gt;&lt;td&gt;CountryCode&lt;br&gt;&lt;/td&gt;&lt;td&gt;CHAR&lt;br&gt;&lt;/td&gt;&lt;td&gt;&lt;br&gt;&lt;/td&gt;&lt;/tr&gt;&lt;tr&gt;&lt;td&gt;ModifiedDateKey&lt;br&gt;&lt;/td&gt;&lt;td&gt;INT&lt;br&gt;&lt;/td&gt;&lt;td&gt;&lt;br&gt;&lt;/td&gt;&lt;/tr&gt;&lt;tr&gt;&lt;td&gt;&lt;br&gt;&lt;/td&gt;&lt;td&gt;&lt;br&gt;&lt;/td&gt;&lt;td&gt;&lt;br&gt;&lt;/td&gt;&lt;/tr&gt;&lt;/tbody&gt;&lt;/table&gt;" style="verticalAlign=top;align=left;overflow=fill;html=1;rounded=0;shadow=0;comic=0;labelBackgroundColor=none;strokeWidth=1;fontFamily=Verdana;fontSize=12" parent="1" vertex="1">
          <mxGeometry x="190" y="430" width="170" height="110" as="geometry" />
        </mxCell>
        <mxCell id="PtlEcyWW_qO_h-wi1oPS-9" value="&lt;div style=&quot;box-sizing: border-box ; width: 100% ; background: #e4e4e4 ; padding: 2px&quot;&gt;Dim_ShipmentMethod&lt;/div&gt;&lt;table style=&quot;width: 100% ; font-size: 1em&quot; cellspacing=&quot;0&quot; cellpadding=&quot;2&quot;&gt;&lt;tbody&gt;&lt;tr&gt;&lt;td&gt;ShipmentMethodKey&lt;/td&gt;&lt;td&gt;INT&lt;/td&gt;&lt;td&gt;&lt;br&gt;&lt;/td&gt;&lt;/tr&gt;&lt;tr&gt;&lt;td&gt;ShipMethodName&lt;br&gt;&lt;/td&gt;&lt;td&gt;CHAR&lt;/td&gt;&lt;td&gt;&lt;br&gt;&lt;/td&gt;&lt;/tr&gt;&lt;/tbody&gt;&lt;/table&gt;" style="verticalAlign=top;align=left;overflow=fill;html=1;rounded=0;shadow=0;comic=0;labelBackgroundColor=none;strokeWidth=1;fontFamily=Verdana;fontSize=12" parent="1" vertex="1">
          <mxGeometry x="730" y="610" width="170" height="60" as="geometry" />
        </mxCell>
        <mxCell id="PtlEcyWW_qO_h-wi1oPS-11" value="" style="endArrow=none;html=1;edgeStyle=orthogonalEdgeStyle;jumpStyle=arc;entryX=-0.002;entryY=0.466;entryDx=0;entryDy=0;entryPerimeter=0;exitX=0.002;exitY=0.117;exitDx=0;exitDy=0;exitPerimeter=0;" parent="1" source="PtlEcyWW_qO_h-wi1oPS-2" target="PtlEcyWW_qO_h-wi1oPS-1" edge="1">
          <mxGeometry width="50" height="50" relative="1" as="geometry">
            <mxPoint x="450" y="160" as="sourcePoint" />
            <mxPoint x="460" y="450" as="targetPoint" />
            <Array as="points">
              <mxPoint x="420" y="37" />
              <mxPoint x="420" y="457" />
            </Array>
          </mxGeometry>
        </mxCell>
        <mxCell id="PtlEcyWW_qO_h-wi1oPS-12" value="" style="endArrow=none;html=1;edgeStyle=orthogonalEdgeStyle;jumpStyle=arc;jumpSize=36;shadow=0;sketch=0;entryX=-0.006;entryY=0.421;entryDx=0;entryDy=0;entryPerimeter=0;exitX=-0.002;exitY=0.117;exitDx=0;exitDy=0;exitPerimeter=0;" parent="1" source="PtlEcyWW_qO_h-wi1oPS-2" target="PtlEcyWW_qO_h-wi1oPS-1" edge="1">
          <mxGeometry width="50" height="50" relative="1" as="geometry">
            <mxPoint x="440" y="180" as="sourcePoint" />
            <mxPoint x="459" y="433" as="targetPoint" />
            <Array as="points">
              <mxPoint x="420" y="37" />
              <mxPoint x="420" y="440" />
            </Array>
          </mxGeometry>
        </mxCell>
        <mxCell id="PtlEcyWW_qO_h-wi1oPS-13" value="" style="endArrow=none;html=1;entryX=0;entryY=0.3;entryDx=0;entryDy=0;exitX=1.002;exitY=0.219;exitDx=0;exitDy=0;exitPerimeter=0;entryPerimeter=0;edgeStyle=orthogonalEdgeStyle;" parent="1" source="PtlEcyWW_qO_h-wi1oPS-1" target="PtlEcyWW_qO_h-wi1oPS-3" edge="1">
          <mxGeometry width="50" height="50" relative="1" as="geometry">
            <mxPoint x="580" y="460" as="sourcePoint" />
            <mxPoint x="630" y="410" as="targetPoint" />
            <Array as="points">
              <mxPoint x="680" y="363" />
              <mxPoint x="680" y="239" />
            </Array>
          </mxGeometry>
        </mxCell>
        <mxCell id="PtlEcyWW_qO_h-wi1oPS-14" value="" style="endArrow=none;html=1;exitX=1;exitY=0.376;exitDx=0;exitDy=0;exitPerimeter=0;edgeStyle=orthogonalEdgeStyle;entryX=-0.002;entryY=0.263;entryDx=0;entryDy=0;entryPerimeter=0;" parent="1" source="PtlEcyWW_qO_h-wi1oPS-8" target="PtlEcyWW_qO_h-wi1oPS-1" edge="1">
          <mxGeometry width="50" height="50" relative="1" as="geometry">
            <mxPoint x="290" y="502" as="sourcePoint" />
            <mxPoint x="440" y="380" as="targetPoint" />
            <Array as="points">
              <mxPoint x="400" y="471" />
              <mxPoint x="400" y="380" />
            </Array>
          </mxGeometry>
        </mxCell>
        <mxCell id="PtlEcyWW_qO_h-wi1oPS-15" value="" style="endArrow=none;html=1;edgeStyle=orthogonalEdgeStyle;exitX=1.001;exitY=0.368;exitDx=0;exitDy=0;exitPerimeter=0;entryX=0;entryY=0.25;entryDx=0;entryDy=0;" parent="1" source="PtlEcyWW_qO_h-wi1oPS-1" target="PtlEcyWW_qO_h-wi1oPS-4" edge="1">
          <mxGeometry width="50" height="50" relative="1" as="geometry">
            <mxPoint x="660" y="440" as="sourcePoint" />
            <mxPoint x="700" y="490" as="targetPoint" />
            <Array as="points">
              <mxPoint x="680" y="420" />
              <mxPoint x="680" y="523" />
            </Array>
          </mxGeometry>
        </mxCell>
        <mxCell id="PtlEcyWW_qO_h-wi1oPS-16" value="" style="endArrow=none;html=1;exitX=1;exitY=0.25;exitDx=0;exitDy=0;edgeStyle=orthogonalEdgeStyle;" parent="1" source="PtlEcyWW_qO_h-wi1oPS-5" edge="1">
          <mxGeometry width="50" height="50" relative="1" as="geometry">
            <mxPoint x="450" y="410" as="sourcePoint" />
            <mxPoint x="459" y="347" as="targetPoint" />
            <Array as="points">
              <mxPoint x="400" y="245" />
              <mxPoint x="400" y="347" />
            </Array>
          </mxGeometry>
        </mxCell>
        <mxCell id="PtlEcyWW_qO_h-wi1oPS-17" value="" style="endArrow=none;html=1;edgeStyle=orthogonalEdgeStyle;exitX=1.004;exitY=0.319;exitDx=0;exitDy=0;exitPerimeter=0;entryX=-0.006;entryY=0.2;entryDx=0;entryDy=0;entryPerimeter=0;" parent="1" source="PtlEcyWW_qO_h-wi1oPS-1" target="PtlEcyWW_qO_h-wi1oPS-7" edge="1">
          <mxGeometry width="50" height="50" relative="1" as="geometry">
            <mxPoint x="670" y="400" as="sourcePoint" />
            <mxPoint x="700" y="380" as="targetPoint" />
            <Array as="points">
              <mxPoint x="710" y="401" />
              <mxPoint x="710" y="376" />
            </Array>
          </mxGeometry>
        </mxCell>
        <mxCell id="PtlEcyWW_qO_h-wi1oPS-18" value="" style="endArrow=none;html=1;exitX=0.996;exitY=0.352;exitDx=0;exitDy=0;edgeStyle=orthogonalEdgeStyle;entryX=0;entryY=0.5;entryDx=0;entryDy=0;exitPerimeter=0;" parent="1" source="PtlEcyWW_qO_h-wi1oPS-6" target="PtlEcyWW_qO_h-wi1oPS-1" edge="1">
          <mxGeometry width="50" height="50" relative="1" as="geometry">
            <mxPoint x="580" y="460" as="sourcePoint" />
            <mxPoint x="459" y="490" as="targetPoint" />
            <Array as="points">
              <mxPoint x="420" y="599" />
              <mxPoint x="420" y="470" />
            </Array>
          </mxGeometry>
        </mxCell>
        <mxCell id="PtlEcyWW_qO_h-wi1oPS-19" value="" style="endArrow=none;html=1;edgeStyle=orthogonalEdgeStyle;exitX=0.999;exitY=0.352;exitDx=0;exitDy=0;exitPerimeter=0;" parent="1" source="PtlEcyWW_qO_h-wi1oPS-6" edge="1">
          <mxGeometry width="50" height="50" relative="1" as="geometry">
            <mxPoint x="370" y="681" as="sourcePoint" />
            <mxPoint x="459" y="488" as="targetPoint" />
            <Array as="points">
              <mxPoint x="420" y="599" />
              <mxPoint x="420" y="488" />
            </Array>
          </mxGeometry>
        </mxCell>
        <mxCell id="PtlEcyWW_qO_h-wi1oPS-20" value="" style="endArrow=none;html=1;entryX=0;entryY=0.414;entryDx=0;entryDy=0;entryPerimeter=0;edgeStyle=orthogonalEdgeStyle;" parent="1" target="PtlEcyWW_qO_h-wi1oPS-9" edge="1">
          <mxGeometry width="50" height="50" relative="1" as="geometry">
            <mxPoint x="639" y="510" as="sourcePoint" />
            <mxPoint x="630" y="410" as="targetPoint" />
            <Array as="points">
              <mxPoint x="660" y="510" />
              <mxPoint x="660" y="635" />
            </Array>
          </mxGeometry>
        </mxCell>
        <mxCell id="Dnd5wSolRnH-Zif3CO_Z-1" value="" style="endArrow=none;html=1;shadow=0;exitX=-0.006;exitY=0.8;exitDx=0;exitDy=0;exitPerimeter=0;edgeStyle=orthogonalEdgeStyle;entryX=-0.006;entryY=0.116;entryDx=0;entryDy=0;entryPerimeter=0;" edge="1" parent="1" source="PtlEcyWW_qO_h-wi1oPS-5" target="PtlEcyWW_qO_h-wi1oPS-2">
          <mxGeometry width="50" height="50" relative="1" as="geometry">
            <mxPoint x="520" y="460" as="sourcePoint" />
            <mxPoint x="460" y="120" as="targetPoint" />
            <Array as="points">
              <mxPoint x="170" y="366" />
              <mxPoint x="170" y="37" />
              <mxPoint x="459" y="37" />
            </Array>
          </mxGeometry>
        </mxCell>
        <mxCell id="Dnd5wSolRnH-Zif3CO_Z-2" value="" style="endArrow=none;html=1;shadow=0;edgeStyle=orthogonalEdgeStyle;exitX=-0.005;exitY=0.972;exitDx=0;exitDy=0;exitPerimeter=0;entryX=-0.002;entryY=0.116;entryDx=0;entryDy=0;entryPerimeter=0;" edge="1" parent="1" source="PtlEcyWW_qO_h-wi1oPS-5" target="PtlEcyWW_qO_h-wi1oPS-2">
          <mxGeometry width="50" height="50" relative="1" as="geometry">
            <mxPoint x="189" y="390" as="sourcePoint" />
            <mxPoint x="460" y="120" as="targetPoint" />
            <Array as="points">
              <mxPoint x="170" y="404" />
              <mxPoint x="170" y="37" />
              <mxPoint x="450" y="37" />
            </Array>
          </mxGeometry>
        </mxCell>
        <mxCell id="Dnd5wSolRnH-Zif3CO_Z-3" value="" style="endArrow=none;html=1;shadow=0;edgeStyle=orthogonalEdgeStyle;exitX=-0.005;exitY=0.884;exitDx=0;exitDy=0;exitPerimeter=0;entryX=-0.006;entryY=0.117;entryDx=0;entryDy=0;entryPerimeter=0;" edge="1" parent="1" source="PtlEcyWW_qO_h-wi1oPS-5" target="PtlEcyWW_qO_h-wi1oPS-2">
          <mxGeometry width="50" height="50" relative="1" as="geometry">
            <mxPoint x="189.14999999999998" y="403.8399999999999" as="sourcePoint" />
            <mxPoint x="420" y="60" as="targetPoint" />
            <Array as="points">
              <mxPoint x="170" y="385" />
              <mxPoint x="170" y="37" />
            </Array>
          </mxGeometry>
        </mxCell>
        <mxCell id="Dnd5wSolRnH-Zif3CO_Z-5" value="" style="endArrow=none;html=1;shadow=0;entryX=-0.006;entryY=0.117;entryDx=0;entryDy=0;edgeStyle=orthogonalEdgeStyle;exitX=0.006;exitY=0.936;exitDx=0;exitDy=0;exitPerimeter=0;entryPerimeter=0;" edge="1" parent="1" source="PtlEcyWW_qO_h-wi1oPS-6" target="PtlEcyWW_qO_h-wi1oPS-2">
          <mxGeometry width="50" height="50" relative="1" as="geometry">
            <mxPoint x="189.1500000000001" y="384.48" as="sourcePoint" />
            <mxPoint x="480" y="110" as="targetPoint" />
            <Array as="points">
              <mxPoint x="170" y="663" />
              <mxPoint x="170" y="37" />
            </Array>
          </mxGeometry>
        </mxCell>
        <mxCell id="Dnd5wSolRnH-Zif3CO_Z-6" value="" style="endArrow=none;html=1;shadow=0;entryX=0.007;entryY=0.117;entryDx=0;entryDy=0;edgeStyle=orthogonalEdgeStyle;exitX=0;exitY=0.936;exitDx=0;exitDy=0;exitPerimeter=0;entryPerimeter=0;" edge="1" parent="1" source="PtlEcyWW_qO_h-wi1oPS-8" target="PtlEcyWW_qO_h-wi1oPS-2">
          <mxGeometry width="50" height="50" relative="1" as="geometry">
            <mxPoint x="191.01999999999998" y="662.96" as="sourcePoint" />
            <mxPoint x="480" y="110" as="targetPoint" />
            <Array as="points">
              <mxPoint x="170" y="533" />
              <mxPoint x="170" y="37" />
            </Array>
          </mxGeometry>
        </mxCell>
        <mxCell id="Dnd5wSolRnH-Zif3CO_Z-7" value="" style="endArrow=none;html=1;shadow=0;exitX=1;exitY=0.75;exitDx=0;exitDy=0;edgeStyle=orthogonalEdgeStyle;entryX=0.994;entryY=0.112;entryDx=0;entryDy=0;entryPerimeter=0;" edge="1" parent="1" source="PtlEcyWW_qO_h-wi1oPS-3" target="PtlEcyWW_qO_h-wi1oPS-2">
          <mxGeometry width="50" height="50" relative="1" as="geometry">
            <mxPoint x="550" y="400" as="sourcePoint" />
            <mxPoint x="670" y="70" as="targetPoint" />
            <Array as="points">
              <mxPoint x="920" y="298" />
              <mxPoint x="920" y="36" />
            </Array>
          </mxGeometry>
        </mxCell>
        <mxCell id="Dnd5wSolRnH-Zif3CO_Z-8" value="" style="endArrow=none;html=1;shadow=0;exitX=1.008;exitY=0.926;exitDx=0;exitDy=0;edgeStyle=orthogonalEdgeStyle;exitPerimeter=0;entryX=1;entryY=0.113;entryDx=0;entryDy=0;entryPerimeter=0;" edge="1" parent="1" source="PtlEcyWW_qO_h-wi1oPS-3" target="PtlEcyWW_qO_h-wi1oPS-2">
          <mxGeometry width="50" height="50" relative="1" as="geometry">
            <mxPoint x="900" y="337.5" as="sourcePoint" />
            <mxPoint x="740" y="50" as="targetPoint" />
            <Array as="points">
              <mxPoint x="920" y="320" />
              <mxPoint x="920" y="36" />
            </Array>
          </mxGeometry>
        </mxCell>
        <mxCell id="Dnd5wSolRnH-Zif3CO_Z-9" value="" style="endArrow=none;html=1;shadow=0;exitX=1.001;exitY=0.925;exitDx=0;exitDy=0;edgeStyle=orthogonalEdgeStyle;exitPerimeter=0;entryX=1.006;entryY=0.113;entryDx=0;entryDy=0;entryPerimeter=0;" edge="1" parent="1" source="PtlEcyWW_qO_h-wi1oPS-4" target="PtlEcyWW_qO_h-wi1oPS-2">
          <mxGeometry width="50" height="50" relative="1" as="geometry">
            <mxPoint x="901.3600000000001" y="360.38" as="sourcePoint" />
            <mxPoint x="740" y="70" as="targetPoint" />
            <Array as="points">
              <mxPoint x="920" y="583" />
              <mxPoint x="920" y="36" />
            </Array>
          </mxGeometry>
        </mxCell>
      </root>
    </mxGraphModel>
  </diagram>
</mxfile>
